<mxfile host="65bd71144e">
    <diagram id="4KuwjfA4PhU-JtdL5-S6" name="ページ1">
        <mxGraphModel dx="526" dy="683" grid="1" gridSize="10" guides="1" tooltips="1" connect="1" arrows="1" fold="1" page="1" pageScale="1" pageWidth="1169" pageHeight="827" math="0" shadow="0">
            <root>
                <mxCell id="0"/>
                <mxCell id="1" parent="0"/>
                <mxCell id="4" value="users" style="shape=table;startSize=30;container=1;collapsible=1;childLayout=tableLayout;fixedRows=1;rowLines=0;fontStyle=1;align=center;resizeLast=1;fillStyle=auto;swimlaneFillColor=none;gradientDirection=south;rounded=0;shadow=0;swimlaneLine=1;fillColor=none;strokeColor=default;" parent="1" vertex="1">
                    <mxGeometry x="40" y="40" width="200" height="270" as="geometry"/>
                </mxCell>
                <mxCell id="5" value="" style="shape=tableRow;horizontal=0;startSize=0;swimlaneHead=0;swimlaneBody=0;fillColor=none;collapsible=0;dropTarget=0;points=[[0,0.5],[1,0.5]];portConstraint=eastwest;top=0;left=0;right=0;bottom=1;" parent="4" vertex="1">
                    <mxGeometry y="30" width="200" height="30" as="geometry"/>
                </mxCell>
                <mxCell id="6" value="PK" style="shape=partialRectangle;connectable=0;fillColor=none;top=0;left=0;bottom=0;right=0;fontStyle=1;overflow=hidden;" parent="5" vertex="1">
                    <mxGeometry width="30" height="30" as="geometry">
                        <mxRectangle width="30" height="30" as="alternateBounds"/>
                    </mxGeometry>
                </mxCell>
                <mxCell id="7" value="id" style="shape=partialRectangle;connectable=0;fillColor=none;top=0;left=0;bottom=0;right=0;align=left;spacingLeft=6;fontStyle=5;overflow=hidden;" parent="5" vertex="1">
                    <mxGeometry x="30" width="170" height="30" as="geometry">
                        <mxRectangle width="170" height="30" as="alternateBounds"/>
                    </mxGeometry>
                </mxCell>
                <mxCell id="8" value="" style="shape=tableRow;horizontal=0;startSize=0;swimlaneHead=0;swimlaneBody=0;fillColor=none;collapsible=0;dropTarget=0;points=[[0,0.5],[1,0.5]];portConstraint=eastwest;top=0;left=0;right=0;bottom=0;" parent="4" vertex="1">
                    <mxGeometry y="60" width="200" height="30" as="geometry"/>
                </mxCell>
                <mxCell id="9" value="" style="shape=partialRectangle;connectable=0;fillColor=none;top=0;left=0;bottom=0;right=0;editable=1;overflow=hidden;" parent="8" vertex="1">
                    <mxGeometry width="30" height="30" as="geometry">
                        <mxRectangle width="30" height="30" as="alternateBounds"/>
                    </mxGeometry>
                </mxCell>
                <mxCell id="10" value="name" style="shape=partialRectangle;connectable=0;fillColor=none;top=0;left=0;bottom=0;right=0;align=left;spacingLeft=6;overflow=hidden;" parent="8" vertex="1">
                    <mxGeometry x="30" width="170" height="30" as="geometry">
                        <mxRectangle width="170" height="30" as="alternateBounds"/>
                    </mxGeometry>
                </mxCell>
                <mxCell id="11" value="" style="shape=tableRow;horizontal=0;startSize=0;swimlaneHead=0;swimlaneBody=0;fillColor=none;collapsible=0;dropTarget=0;points=[[0,0.5],[1,0.5]];portConstraint=eastwest;top=0;left=0;right=0;bottom=0;" parent="4" vertex="1">
                    <mxGeometry y="90" width="200" height="30" as="geometry"/>
                </mxCell>
                <mxCell id="12" value="" style="shape=partialRectangle;connectable=0;fillColor=none;top=0;left=0;bottom=0;right=0;editable=1;overflow=hidden;" parent="11" vertex="1">
                    <mxGeometry width="30" height="30" as="geometry">
                        <mxRectangle width="30" height="30" as="alternateBounds"/>
                    </mxGeometry>
                </mxCell>
                <mxCell id="13" value="email" style="shape=partialRectangle;connectable=0;fillColor=none;top=0;left=0;bottom=0;right=0;align=left;spacingLeft=6;overflow=hidden;" parent="11" vertex="1">
                    <mxGeometry x="30" width="170" height="30" as="geometry">
                        <mxRectangle width="170" height="30" as="alternateBounds"/>
                    </mxGeometry>
                </mxCell>
                <mxCell id="14" value="" style="shape=tableRow;horizontal=0;startSize=0;swimlaneHead=0;swimlaneBody=0;fillColor=none;collapsible=0;dropTarget=0;points=[[0,0.5],[1,0.5]];portConstraint=eastwest;top=0;left=0;right=0;bottom=0;" parent="4" vertex="1">
                    <mxGeometry y="120" width="200" height="30" as="geometry"/>
                </mxCell>
                <mxCell id="15" value="" style="shape=partialRectangle;connectable=0;fillColor=none;top=0;left=0;bottom=0;right=0;editable=1;overflow=hidden;" parent="14" vertex="1">
                    <mxGeometry width="30" height="30" as="geometry">
                        <mxRectangle width="30" height="30" as="alternateBounds"/>
                    </mxGeometry>
                </mxCell>
                <mxCell id="16" value="introduction" style="shape=partialRectangle;connectable=0;fillColor=none;top=0;left=0;bottom=0;right=0;align=left;spacingLeft=6;overflow=hidden;" parent="14" vertex="1">
                    <mxGeometry x="30" width="170" height="30" as="geometry">
                        <mxRectangle width="170" height="30" as="alternateBounds"/>
                    </mxGeometry>
                </mxCell>
                <mxCell id="34" style="shape=tableRow;horizontal=0;startSize=0;swimlaneHead=0;swimlaneBody=0;fillColor=none;collapsible=0;dropTarget=0;points=[[0,0.5],[1,0.5]];portConstraint=eastwest;top=0;left=0;right=0;bottom=0;" parent="4" vertex="1">
                    <mxGeometry y="150" width="200" height="30" as="geometry"/>
                </mxCell>
                <mxCell id="35" style="shape=partialRectangle;connectable=0;fillColor=none;top=0;left=0;bottom=0;right=0;editable=1;overflow=hidden;" parent="34" vertex="1">
                    <mxGeometry width="30" height="30" as="geometry">
                        <mxRectangle width="30" height="30" as="alternateBounds"/>
                    </mxGeometry>
                </mxCell>
                <mxCell id="36" value="profile_image" style="shape=partialRectangle;connectable=0;fillColor=none;top=0;left=0;bottom=0;right=0;align=left;spacingLeft=6;overflow=hidden;" parent="34" vertex="1">
                    <mxGeometry x="30" width="170" height="30" as="geometry">
                        <mxRectangle width="170" height="30" as="alternateBounds"/>
                    </mxGeometry>
                </mxCell>
                <mxCell id="43" style="shape=tableRow;horizontal=0;startSize=0;swimlaneHead=0;swimlaneBody=0;fillColor=none;collapsible=0;dropTarget=0;points=[[0,0.5],[1,0.5]];portConstraint=eastwest;top=0;left=0;right=0;bottom=0;" parent="4" vertex="1">
                    <mxGeometry y="180" width="200" height="30" as="geometry"/>
                </mxCell>
                <mxCell id="44" style="shape=partialRectangle;connectable=0;fillColor=none;top=0;left=0;bottom=0;right=0;editable=1;overflow=hidden;" parent="43" vertex="1">
                    <mxGeometry width="30" height="30" as="geometry">
                        <mxRectangle width="30" height="30" as="alternateBounds"/>
                    </mxGeometry>
                </mxCell>
                <mxCell id="45" value="password_digest" style="shape=partialRectangle;connectable=0;fillColor=none;top=0;left=0;bottom=0;right=0;align=left;spacingLeft=6;overflow=hidden;" parent="43" vertex="1">
                    <mxGeometry x="30" width="170" height="30" as="geometry">
                        <mxRectangle width="170" height="30" as="alternateBounds"/>
                    </mxGeometry>
                </mxCell>
                <mxCell id="40" style="shape=tableRow;horizontal=0;startSize=0;swimlaneHead=0;swimlaneBody=0;fillColor=none;collapsible=0;dropTarget=0;points=[[0,0.5],[1,0.5]];portConstraint=eastwest;top=0;left=0;right=0;bottom=0;" parent="4" vertex="1">
                    <mxGeometry y="210" width="200" height="30" as="geometry"/>
                </mxCell>
                <mxCell id="41" style="shape=partialRectangle;connectable=0;fillColor=none;top=0;left=0;bottom=0;right=0;editable=1;overflow=hidden;" parent="40" vertex="1">
                    <mxGeometry width="30" height="30" as="geometry">
                        <mxRectangle width="30" height="30" as="alternateBounds"/>
                    </mxGeometry>
                </mxCell>
                <mxCell id="42" value="created_at" style="shape=partialRectangle;connectable=0;fillColor=none;top=0;left=0;bottom=0;right=0;align=left;spacingLeft=6;overflow=hidden;" parent="40" vertex="1">
                    <mxGeometry x="30" width="170" height="30" as="geometry">
                        <mxRectangle width="170" height="30" as="alternateBounds"/>
                    </mxGeometry>
                </mxCell>
                <mxCell id="37" style="shape=tableRow;horizontal=0;startSize=0;swimlaneHead=0;swimlaneBody=0;fillColor=none;collapsible=0;dropTarget=0;points=[[0,0.5],[1,0.5]];portConstraint=eastwest;top=0;left=0;right=0;bottom=0;" parent="4" vertex="1">
                    <mxGeometry y="240" width="200" height="30" as="geometry"/>
                </mxCell>
                <mxCell id="38" style="shape=partialRectangle;connectable=0;fillColor=none;top=0;left=0;bottom=0;right=0;editable=1;overflow=hidden;" parent="37" vertex="1">
                    <mxGeometry width="30" height="30" as="geometry">
                        <mxRectangle width="30" height="30" as="alternateBounds"/>
                    </mxGeometry>
                </mxCell>
                <mxCell id="39" value="update_at" style="shape=partialRectangle;connectable=0;fillColor=none;top=0;left=0;bottom=0;right=0;align=left;spacingLeft=6;overflow=hidden;" parent="37" vertex="1">
                    <mxGeometry x="30" width="170" height="30" as="geometry">
                        <mxRectangle width="170" height="30" as="alternateBounds"/>
                    </mxGeometry>
                </mxCell>
                <mxCell id="77" style="edgeStyle=none;rounded=0;html=1;startArrow=ERone;startFill=0;endArrow=ERzeroToMany;endFill=0;exitX=1;exitY=0.5;exitDx=0;exitDy=0;" parent="1" source="5" edge="1">
                    <mxGeometry relative="1" as="geometry">
                        <mxPoint x="360" y="115" as="targetPoint"/>
                        <Array as="points">
                            <mxPoint x="280" y="85"/>
                            <mxPoint x="280" y="115"/>
                        </Array>
                    </mxGeometry>
                </mxCell>
                <mxCell id="78" value="comments" style="shape=table;startSize=30;container=1;collapsible=1;childLayout=tableLayout;fixedRows=1;rowLines=0;fontStyle=1;align=center;resizeLast=1;rounded=0;strokeColor=default;fillColor=none;" parent="1" vertex="1">
                    <mxGeometry x="360" y="320" width="180" height="210" as="geometry"/>
                </mxCell>
                <mxCell id="79" value="" style="shape=tableRow;horizontal=0;startSize=0;swimlaneHead=0;swimlaneBody=0;fillColor=none;collapsible=0;dropTarget=0;points=[[0,0.5],[1,0.5]];portConstraint=eastwest;top=0;left=0;right=0;bottom=1;rounded=0;strokeColor=default;" parent="78" vertex="1">
                    <mxGeometry y="30" width="180" height="30" as="geometry"/>
                </mxCell>
                <mxCell id="80" value="PK" style="shape=partialRectangle;connectable=0;fillColor=none;top=0;left=0;bottom=0;right=0;fontStyle=1;overflow=hidden;rounded=0;strokeColor=default;" parent="79" vertex="1">
                    <mxGeometry width="30" height="30" as="geometry">
                        <mxRectangle width="30" height="30" as="alternateBounds"/>
                    </mxGeometry>
                </mxCell>
                <mxCell id="81" value="id" style="shape=partialRectangle;connectable=0;fillColor=none;top=0;left=0;bottom=0;right=0;align=left;spacingLeft=6;fontStyle=5;overflow=hidden;rounded=0;strokeColor=default;" parent="79" vertex="1">
                    <mxGeometry x="30" width="150" height="30" as="geometry">
                        <mxRectangle width="150" height="30" as="alternateBounds"/>
                    </mxGeometry>
                </mxCell>
                <mxCell id="82" value="" style="shape=tableRow;horizontal=0;startSize=0;swimlaneHead=0;swimlaneBody=0;fillColor=none;collapsible=0;dropTarget=0;points=[[0,0.5],[1,0.5]];portConstraint=eastwest;top=0;left=0;right=0;bottom=0;rounded=0;strokeColor=default;" parent="78" vertex="1">
                    <mxGeometry y="60" width="180" height="30" as="geometry"/>
                </mxCell>
                <mxCell id="83" value="FK1" style="shape=partialRectangle;connectable=0;fillColor=none;top=0;left=0;bottom=0;right=0;editable=1;overflow=hidden;rounded=0;strokeColor=default;" parent="82" vertex="1">
                    <mxGeometry width="30" height="30" as="geometry">
                        <mxRectangle width="30" height="30" as="alternateBounds"/>
                    </mxGeometry>
                </mxCell>
                <mxCell id="84" value="user_id" style="shape=partialRectangle;connectable=0;fillColor=none;top=0;left=0;bottom=0;right=0;align=left;spacingLeft=6;overflow=hidden;rounded=0;strokeColor=default;" parent="82" vertex="1">
                    <mxGeometry x="30" width="150" height="30" as="geometry">
                        <mxRectangle width="150" height="30" as="alternateBounds"/>
                    </mxGeometry>
                </mxCell>
                <mxCell id="85" value="" style="shape=tableRow;horizontal=0;startSize=0;swimlaneHead=0;swimlaneBody=0;fillColor=none;collapsible=0;dropTarget=0;points=[[0,0.5],[1,0.5]];portConstraint=eastwest;top=0;left=0;right=0;bottom=0;rounded=0;strokeColor=default;" parent="78" vertex="1">
                    <mxGeometry y="90" width="180" height="30" as="geometry"/>
                </mxCell>
                <mxCell id="86" value="FK2" style="shape=partialRectangle;connectable=0;fillColor=none;top=0;left=0;bottom=0;right=0;editable=1;overflow=hidden;rounded=0;strokeColor=default;" parent="85" vertex="1">
                    <mxGeometry width="30" height="30" as="geometry">
                        <mxRectangle width="30" height="30" as="alternateBounds"/>
                    </mxGeometry>
                </mxCell>
                <mxCell id="87" value="post_id" style="shape=partialRectangle;connectable=0;fillColor=none;top=0;left=0;bottom=0;right=0;align=left;spacingLeft=6;overflow=hidden;rounded=0;strokeColor=default;" parent="85" vertex="1">
                    <mxGeometry x="30" width="150" height="30" as="geometry">
                        <mxRectangle width="150" height="30" as="alternateBounds"/>
                    </mxGeometry>
                </mxCell>
                <mxCell id="88" value="" style="shape=tableRow;horizontal=0;startSize=0;swimlaneHead=0;swimlaneBody=0;fillColor=none;collapsible=0;dropTarget=0;points=[[0,0.5],[1,0.5]];portConstraint=eastwest;top=0;left=0;right=0;bottom=0;rounded=0;strokeColor=default;" parent="78" vertex="1">
                    <mxGeometry y="120" width="180" height="30" as="geometry"/>
                </mxCell>
                <mxCell id="89" value="" style="shape=partialRectangle;connectable=0;fillColor=none;top=0;left=0;bottom=0;right=0;editable=1;overflow=hidden;rounded=0;strokeColor=default;" parent="88" vertex="1">
                    <mxGeometry width="30" height="30" as="geometry">
                        <mxRectangle width="30" height="30" as="alternateBounds"/>
                    </mxGeometry>
                </mxCell>
                <mxCell id="90" value="body" style="shape=partialRectangle;connectable=0;fillColor=none;top=0;left=0;bottom=0;right=0;align=left;spacingLeft=6;overflow=hidden;rounded=0;strokeColor=default;" parent="88" vertex="1">
                    <mxGeometry x="30" width="150" height="30" as="geometry">
                        <mxRectangle width="150" height="30" as="alternateBounds"/>
                    </mxGeometry>
                </mxCell>
                <mxCell id="91" style="shape=tableRow;horizontal=0;startSize=0;swimlaneHead=0;swimlaneBody=0;fillColor=none;collapsible=0;dropTarget=0;points=[[0,0.5],[1,0.5]];portConstraint=eastwest;top=0;left=0;right=0;bottom=0;rounded=0;strokeColor=default;" parent="78" vertex="1">
                    <mxGeometry y="150" width="180" height="30" as="geometry"/>
                </mxCell>
                <mxCell id="92" style="shape=partialRectangle;connectable=0;fillColor=none;top=0;left=0;bottom=0;right=0;editable=1;overflow=hidden;rounded=0;strokeColor=default;" parent="91" vertex="1">
                    <mxGeometry width="30" height="30" as="geometry">
                        <mxRectangle width="30" height="30" as="alternateBounds"/>
                    </mxGeometry>
                </mxCell>
                <mxCell id="93" value="created_at" style="shape=partialRectangle;connectable=0;fillColor=none;top=0;left=0;bottom=0;right=0;align=left;spacingLeft=6;overflow=hidden;rounded=0;strokeColor=default;" parent="91" vertex="1">
                    <mxGeometry x="30" width="150" height="30" as="geometry">
                        <mxRectangle width="150" height="30" as="alternateBounds"/>
                    </mxGeometry>
                </mxCell>
                <mxCell id="94" style="shape=tableRow;horizontal=0;startSize=0;swimlaneHead=0;swimlaneBody=0;fillColor=none;collapsible=0;dropTarget=0;points=[[0,0.5],[1,0.5]];portConstraint=eastwest;top=0;left=0;right=0;bottom=0;rounded=0;strokeColor=default;" parent="78" vertex="1">
                    <mxGeometry y="180" width="180" height="30" as="geometry"/>
                </mxCell>
                <mxCell id="95" style="shape=partialRectangle;connectable=0;fillColor=none;top=0;left=0;bottom=0;right=0;editable=1;overflow=hidden;rounded=0;strokeColor=default;" parent="94" vertex="1">
                    <mxGeometry width="30" height="30" as="geometry">
                        <mxRectangle width="30" height="30" as="alternateBounds"/>
                    </mxGeometry>
                </mxCell>
                <mxCell id="96" value="update_at" style="shape=partialRectangle;connectable=0;fillColor=none;top=0;left=0;bottom=0;right=0;align=left;spacingLeft=6;overflow=hidden;rounded=0;strokeColor=default;" parent="94" vertex="1">
                    <mxGeometry x="30" width="150" height="30" as="geometry">
                        <mxRectangle width="150" height="30" as="alternateBounds"/>
                    </mxGeometry>
                </mxCell>
                <mxCell id="97" style="edgeStyle=none;rounded=0;html=1;entryX=0;entryY=0.5;entryDx=0;entryDy=0;startArrow=ERone;startFill=0;endArrow=ERzeroToMany;endFill=0;exitX=1;exitY=0.5;exitDx=0;exitDy=0;" parent="1" source="5" target="82" edge="1">
                    <mxGeometry relative="1" as="geometry">
                        <Array as="points">
                            <mxPoint x="260" y="85"/>
                            <mxPoint x="260" y="395"/>
                        </Array>
                    </mxGeometry>
                </mxCell>
                <mxCell id="106" value="posts" style="shape=table;startSize=30;container=1;collapsible=1;childLayout=tableLayout;fixedRows=1;rowLines=0;fontStyle=1;align=center;resizeLast=1;rounded=0;strokeColor=default;fillColor=none;" parent="1" vertex="1">
                    <mxGeometry x="360" y="40" width="180" height="210" as="geometry"/>
                </mxCell>
                <mxCell id="107" value="" style="shape=tableRow;horizontal=0;startSize=0;swimlaneHead=0;swimlaneBody=0;fillColor=none;collapsible=0;dropTarget=0;points=[[0,0.5],[1,0.5]];portConstraint=eastwest;top=0;left=0;right=0;bottom=1;rounded=0;strokeColor=default;" parent="106" vertex="1">
                    <mxGeometry y="30" width="180" height="30" as="geometry"/>
                </mxCell>
                <mxCell id="108" value="PK" style="shape=partialRectangle;connectable=0;fillColor=none;top=0;left=0;bottom=0;right=0;fontStyle=1;overflow=hidden;rounded=0;strokeColor=default;" parent="107" vertex="1">
                    <mxGeometry width="30" height="30" as="geometry">
                        <mxRectangle width="30" height="30" as="alternateBounds"/>
                    </mxGeometry>
                </mxCell>
                <mxCell id="109" value="id" style="shape=partialRectangle;connectable=0;fillColor=none;top=0;left=0;bottom=0;right=0;align=left;spacingLeft=6;fontStyle=5;overflow=hidden;rounded=0;strokeColor=default;" parent="107" vertex="1">
                    <mxGeometry x="30" width="150" height="30" as="geometry">
                        <mxRectangle width="150" height="30" as="alternateBounds"/>
                    </mxGeometry>
                </mxCell>
                <mxCell id="110" value="" style="shape=tableRow;horizontal=0;startSize=0;swimlaneHead=0;swimlaneBody=0;fillColor=none;collapsible=0;dropTarget=0;points=[[0,0.5],[1,0.5]];portConstraint=eastwest;top=0;left=0;right=0;bottom=0;rounded=0;strokeColor=default;" parent="106" vertex="1">
                    <mxGeometry y="60" width="180" height="30" as="geometry"/>
                </mxCell>
                <mxCell id="111" value="" style="shape=partialRectangle;connectable=0;fillColor=none;top=0;left=0;bottom=0;right=0;editable=1;overflow=hidden;rounded=0;strokeColor=default;" parent="110" vertex="1">
                    <mxGeometry width="30" height="30" as="geometry">
                        <mxRectangle width="30" height="30" as="alternateBounds"/>
                    </mxGeometry>
                </mxCell>
                <mxCell id="112" value="user_id" style="shape=partialRectangle;connectable=0;fillColor=none;top=0;left=0;bottom=0;right=0;align=left;spacingLeft=6;overflow=hidden;rounded=0;strokeColor=default;" parent="110" vertex="1">
                    <mxGeometry x="30" width="150" height="30" as="geometry">
                        <mxRectangle width="150" height="30" as="alternateBounds"/>
                    </mxGeometry>
                </mxCell>
                <mxCell id="113" value="" style="shape=tableRow;horizontal=0;startSize=0;swimlaneHead=0;swimlaneBody=0;fillColor=none;collapsible=0;dropTarget=0;points=[[0,0.5],[1,0.5]];portConstraint=eastwest;top=0;left=0;right=0;bottom=0;rounded=0;strokeColor=default;" parent="106" vertex="1">
                    <mxGeometry y="90" width="180" height="30" as="geometry"/>
                </mxCell>
                <mxCell id="114" value="" style="shape=partialRectangle;connectable=0;fillColor=none;top=0;left=0;bottom=0;right=0;editable=1;overflow=hidden;rounded=0;strokeColor=default;" parent="113" vertex="1">
                    <mxGeometry width="30" height="30" as="geometry">
                        <mxRectangle width="30" height="30" as="alternateBounds"/>
                    </mxGeometry>
                </mxCell>
                <mxCell id="115" value="body" style="shape=partialRectangle;connectable=0;fillColor=none;top=0;left=0;bottom=0;right=0;align=left;spacingLeft=6;overflow=hidden;rounded=0;strokeColor=default;" parent="113" vertex="1">
                    <mxGeometry x="30" width="150" height="30" as="geometry">
                        <mxRectangle width="150" height="30" as="alternateBounds"/>
                    </mxGeometry>
                </mxCell>
                <mxCell id="116" value="" style="shape=tableRow;horizontal=0;startSize=0;swimlaneHead=0;swimlaneBody=0;fillColor=none;collapsible=0;dropTarget=0;points=[[0,0.5],[1,0.5]];portConstraint=eastwest;top=0;left=0;right=0;bottom=0;rounded=0;strokeColor=default;" parent="106" vertex="1">
                    <mxGeometry y="120" width="180" height="30" as="geometry"/>
                </mxCell>
                <mxCell id="117" value="" style="shape=partialRectangle;connectable=0;fillColor=none;top=0;left=0;bottom=0;right=0;editable=1;overflow=hidden;rounded=0;strokeColor=default;" parent="116" vertex="1">
                    <mxGeometry width="30" height="30" as="geometry">
                        <mxRectangle width="30" height="30" as="alternateBounds"/>
                    </mxGeometry>
                </mxCell>
                <mxCell id="118" value="image" style="shape=partialRectangle;connectable=0;fillColor=none;top=0;left=0;bottom=0;right=0;align=left;spacingLeft=6;overflow=hidden;rounded=0;strokeColor=default;" parent="116" vertex="1">
                    <mxGeometry x="30" width="150" height="30" as="geometry">
                        <mxRectangle width="150" height="30" as="alternateBounds"/>
                    </mxGeometry>
                </mxCell>
                <mxCell id="119" style="shape=tableRow;horizontal=0;startSize=0;swimlaneHead=0;swimlaneBody=0;fillColor=none;collapsible=0;dropTarget=0;points=[[0,0.5],[1,0.5]];portConstraint=eastwest;top=0;left=0;right=0;bottom=0;rounded=0;strokeColor=default;" parent="106" vertex="1">
                    <mxGeometry y="150" width="180" height="30" as="geometry"/>
                </mxCell>
                <mxCell id="120" style="shape=partialRectangle;connectable=0;fillColor=none;top=0;left=0;bottom=0;right=0;editable=1;overflow=hidden;rounded=0;strokeColor=default;" parent="119" vertex="1">
                    <mxGeometry width="30" height="30" as="geometry">
                        <mxRectangle width="30" height="30" as="alternateBounds"/>
                    </mxGeometry>
                </mxCell>
                <mxCell id="121" value="created_at" style="shape=partialRectangle;connectable=0;fillColor=none;top=0;left=0;bottom=0;right=0;align=left;spacingLeft=6;overflow=hidden;rounded=0;strokeColor=default;" parent="119" vertex="1">
                    <mxGeometry x="30" width="150" height="30" as="geometry">
                        <mxRectangle width="150" height="30" as="alternateBounds"/>
                    </mxGeometry>
                </mxCell>
                <mxCell id="122" style="shape=tableRow;horizontal=0;startSize=0;swimlaneHead=0;swimlaneBody=0;fillColor=none;collapsible=0;dropTarget=0;points=[[0,0.5],[1,0.5]];portConstraint=eastwest;top=0;left=0;right=0;bottom=0;rounded=0;strokeColor=default;" parent="106" vertex="1">
                    <mxGeometry y="180" width="180" height="30" as="geometry"/>
                </mxCell>
                <mxCell id="123" style="shape=partialRectangle;connectable=0;fillColor=none;top=0;left=0;bottom=0;right=0;editable=1;overflow=hidden;rounded=0;strokeColor=default;" parent="122" vertex="1">
                    <mxGeometry width="30" height="30" as="geometry">
                        <mxRectangle width="30" height="30" as="alternateBounds"/>
                    </mxGeometry>
                </mxCell>
                <mxCell id="124" value="update_at" style="shape=partialRectangle;connectable=0;fillColor=none;top=0;left=0;bottom=0;right=0;align=left;spacingLeft=6;overflow=hidden;rounded=0;strokeColor=default;" parent="122" vertex="1">
                    <mxGeometry x="30" width="150" height="30" as="geometry">
                        <mxRectangle width="150" height="30" as="alternateBounds"/>
                    </mxGeometry>
                </mxCell>
                <mxCell id="125" style="edgeStyle=none;rounded=0;html=1;startArrow=ERone;startFill=0;endArrow=ERzeroToMany;endFill=0;entryX=1;entryY=0.5;entryDx=0;entryDy=0;exitX=1;exitY=0.3;exitDx=0;exitDy=0;exitPerimeter=0;" parent="1" source="107" target="85" edge="1">
                    <mxGeometry relative="1" as="geometry">
                        <mxPoint x="590" y="85" as="targetPoint"/>
                        <Array as="points">
                            <mxPoint x="580" y="79"/>
                            <mxPoint x="580" y="425"/>
                        </Array>
                    </mxGeometry>
                </mxCell>
                <mxCell id="126" value="likes" style="shape=table;startSize=30;container=1;collapsible=1;childLayout=tableLayout;fixedRows=1;rowLines=0;fontStyle=1;align=center;resizeLast=1;" vertex="1" parent="1">
                    <mxGeometry x="60" y="400" width="180" height="180" as="geometry"/>
                </mxCell>
                <mxCell id="127" value="" style="shape=tableRow;horizontal=0;startSize=0;swimlaneHead=0;swimlaneBody=0;fillColor=none;collapsible=0;dropTarget=0;points=[[0,0.5],[1,0.5]];portConstraint=eastwest;top=0;left=0;right=0;bottom=1;" vertex="1" parent="126">
                    <mxGeometry y="30" width="180" height="30" as="geometry"/>
                </mxCell>
                <mxCell id="128" value="PK" style="shape=partialRectangle;connectable=0;fillColor=none;top=0;left=0;bottom=0;right=0;fontStyle=1;overflow=hidden;" vertex="1" parent="127">
                    <mxGeometry width="30" height="30" as="geometry">
                        <mxRectangle width="30" height="30" as="alternateBounds"/>
                    </mxGeometry>
                </mxCell>
                <mxCell id="129" value="id" style="shape=partialRectangle;connectable=0;fillColor=none;top=0;left=0;bottom=0;right=0;align=left;spacingLeft=6;fontStyle=5;overflow=hidden;" vertex="1" parent="127">
                    <mxGeometry x="30" width="150" height="30" as="geometry">
                        <mxRectangle width="150" height="30" as="alternateBounds"/>
                    </mxGeometry>
                </mxCell>
                <mxCell id="130" value="" style="shape=tableRow;horizontal=0;startSize=0;swimlaneHead=0;swimlaneBody=0;fillColor=none;collapsible=0;dropTarget=0;points=[[0,0.5],[1,0.5]];portConstraint=eastwest;top=0;left=0;right=0;bottom=0;" vertex="1" parent="126">
                    <mxGeometry y="60" width="180" height="30" as="geometry"/>
                </mxCell>
                <mxCell id="131" value="FK1" style="shape=partialRectangle;connectable=0;fillColor=none;top=0;left=0;bottom=0;right=0;editable=1;overflow=hidden;" vertex="1" parent="130">
                    <mxGeometry width="30" height="30" as="geometry">
                        <mxRectangle width="30" height="30" as="alternateBounds"/>
                    </mxGeometry>
                </mxCell>
                <mxCell id="132" value="user_id" style="shape=partialRectangle;connectable=0;fillColor=none;top=0;left=0;bottom=0;right=0;align=left;spacingLeft=6;overflow=hidden;" vertex="1" parent="130">
                    <mxGeometry x="30" width="150" height="30" as="geometry">
                        <mxRectangle width="150" height="30" as="alternateBounds"/>
                    </mxGeometry>
                </mxCell>
                <mxCell id="133" value="" style="shape=tableRow;horizontal=0;startSize=0;swimlaneHead=0;swimlaneBody=0;fillColor=none;collapsible=0;dropTarget=0;points=[[0,0.5],[1,0.5]];portConstraint=eastwest;top=0;left=0;right=0;bottom=0;" vertex="1" parent="126">
                    <mxGeometry y="90" width="180" height="30" as="geometry"/>
                </mxCell>
                <mxCell id="134" value="FK2" style="shape=partialRectangle;connectable=0;fillColor=none;top=0;left=0;bottom=0;right=0;editable=1;overflow=hidden;" vertex="1" parent="133">
                    <mxGeometry width="30" height="30" as="geometry">
                        <mxRectangle width="30" height="30" as="alternateBounds"/>
                    </mxGeometry>
                </mxCell>
                <mxCell id="135" value="post_id" style="shape=partialRectangle;connectable=0;fillColor=none;top=0;left=0;bottom=0;right=0;align=left;spacingLeft=6;overflow=hidden;" vertex="1" parent="133">
                    <mxGeometry x="30" width="150" height="30" as="geometry">
                        <mxRectangle width="150" height="30" as="alternateBounds"/>
                    </mxGeometry>
                </mxCell>
                <mxCell id="141" style="shape=tableRow;horizontal=0;startSize=0;swimlaneHead=0;swimlaneBody=0;fillColor=none;collapsible=0;dropTarget=0;points=[[0,0.5],[1,0.5]];portConstraint=eastwest;top=0;left=0;right=0;bottom=0;" vertex="1" parent="126">
                    <mxGeometry y="120" width="180" height="30" as="geometry"/>
                </mxCell>
                <mxCell id="142" style="shape=partialRectangle;connectable=0;fillColor=none;top=0;left=0;bottom=0;right=0;editable=1;overflow=hidden;" vertex="1" parent="141">
                    <mxGeometry width="30" height="30" as="geometry">
                        <mxRectangle width="30" height="30" as="alternateBounds"/>
                    </mxGeometry>
                </mxCell>
                <mxCell id="143" value="created_at" style="shape=partialRectangle;connectable=0;fillColor=none;top=0;left=0;bottom=0;right=0;align=left;spacingLeft=6;overflow=hidden;" vertex="1" parent="141">
                    <mxGeometry x="30" width="150" height="30" as="geometry">
                        <mxRectangle width="150" height="30" as="alternateBounds"/>
                    </mxGeometry>
                </mxCell>
                <mxCell id="147" style="shape=tableRow;horizontal=0;startSize=0;swimlaneHead=0;swimlaneBody=0;fillColor=none;collapsible=0;dropTarget=0;points=[[0,0.5],[1,0.5]];portConstraint=eastwest;top=0;left=0;right=0;bottom=0;" vertex="1" parent="126">
                    <mxGeometry y="150" width="180" height="30" as="geometry"/>
                </mxCell>
                <mxCell id="148" style="shape=partialRectangle;connectable=0;fillColor=none;top=0;left=0;bottom=0;right=0;editable=1;overflow=hidden;" vertex="1" parent="147">
                    <mxGeometry width="30" height="30" as="geometry">
                        <mxRectangle width="30" height="30" as="alternateBounds"/>
                    </mxGeometry>
                </mxCell>
                <mxCell id="149" value="update_at" style="shape=partialRectangle;connectable=0;fillColor=none;top=0;left=0;bottom=0;right=0;align=left;spacingLeft=6;overflow=hidden;" vertex="1" parent="147">
                    <mxGeometry x="30" width="150" height="30" as="geometry">
                        <mxRectangle width="150" height="30" as="alternateBounds"/>
                    </mxGeometry>
                </mxCell>
                <mxCell id="139" style="edgeStyle=none;html=1;entryX=0;entryY=0.5;entryDx=0;entryDy=0;rounded=0;startArrow=ERone;startFill=0;endArrow=ERzeroToMany;endFill=0;" edge="1" parent="1" source="5" target="130">
                    <mxGeometry relative="1" as="geometry">
                        <Array as="points">
                            <mxPoint x="10" y="85"/>
                            <mxPoint x="10" y="475"/>
                        </Array>
                    </mxGeometry>
                </mxCell>
                <mxCell id="140" style="edgeStyle=none;rounded=0;html=1;entryX=0;entryY=0.5;entryDx=0;entryDy=0;startArrow=ERzeroToMany;startFill=0;endArrow=ERone;endFill=0;exitX=1;exitY=0.5;exitDx=0;exitDy=0;" edge="1" parent="1" source="133" target="107">
                    <mxGeometry relative="1" as="geometry">
                        <Array as="points">
                            <mxPoint x="310" y="505"/>
                            <mxPoint x="310" y="85"/>
                        </Array>
                    </mxGeometry>
                </mxCell>
            </root>
        </mxGraphModel>
    </diagram>
</mxfile>